<svg width="64" height="64" viewBox="0 0 64 64" fill="none" xmlns="http://www.w3.org/2000/svg">
<g id="healthicons:syringe-vaccine">
<path id="Vector" fill-rule="evenodd" clip-rule="evenodd" d="M9.09066 17.152C8.8014 17.4414 8.63897 17.8339 8.63909 18.2431C8.63922 18.6523 8.80189 19.0447 9.09133 19.334C9.38077 19.6233 9.77327 19.7857 10.1825 19.7856C10.5917 19.7854 10.9841 19.6228 11.2733 19.3333L12.364 18.2413L17.8173 23.6947L13.4547 28.06C13.1736 28.3509 13.0181 28.7406 13.0216 29.1451C13.0251 29.5496 13.1873 29.9366 13.4734 30.2226C13.7594 30.5087 14.1464 30.6709 14.5509 30.6744C14.9554 30.6779 15.3451 30.5224 15.636 30.2413L17.8173 28.06L21.7573 32H11.1653C10.3253 32 9.52133 32.3373 8.92667 32.9373C8.33205 33.5402 7.99909 34.3532 8 35.2V39.9973C7.99001 43.7176 9.24012 47.3317 11.5467 50.2507C13.8391 53.1543 17.0583 55.1837 20.6667 56C24.2747 55.1845 27.4938 53.1561 29.7867 50.2533C31.4022 48.2106 32.509 45.8132 33.016 43.2587L36.3627 46.6067C37.4242 47.6686 38.7725 48.3977 40.2423 48.7046C41.7121 49.0116 43.2395 48.883 44.6373 48.3347L46.1813 49.88C46.5643 50.2633 47.0415 50.5389 47.5649 50.6791C48.0883 50.8193 48.6394 50.8192 49.1627 50.6787L52.7267 54.2427C53.0161 54.5321 53.4087 54.6947 53.818 54.6947C54.2273 54.6947 54.6199 54.5321 54.9093 54.2427C55.1988 53.9532 55.3614 53.5607 55.3614 53.1513C55.3614 52.742 55.1988 52.3494 54.9093 52.06L51.344 48.496C51.4841 47.9728 51.4839 47.4219 51.3435 46.8988C51.203 46.3756 50.9273 45.8987 50.544 45.516L49 43.9707C49.4733 42.7636 49.6347 41.4567 49.4693 40.1707C49.2549 38.4769 48.4822 36.9029 47.2733 35.6973L28.7267 17.1507L30.9093 14.968C31.1986 14.6786 31.361 14.2861 31.3609 13.8769C31.3608 13.4677 31.1981 13.0753 30.9087 12.786C30.6192 12.4967 30.2267 12.3343 29.8175 12.3344C29.4083 12.3346 29.0159 12.4972 28.7267 12.7867L24.364 17.1507L18.9107 11.6973L20 10.6067C20.2894 10.3174 20.4521 9.92501 20.4522 9.51581C20.4524 9.1066 20.2899 8.71411 20.0007 8.42467C19.7114 8.13523 19.319 7.97255 18.9098 7.97243C18.5006 7.9723 18.1081 8.13474 17.8187 8.424L9.09066 17.152ZM35.396 41.8667L42.5333 34.7293L26.84 19.036L19.7027 26.1747L25.5293 32H30.168C31.008 32 31.812 32.3373 32.4053 32.9373C33 33.5373 33.3333 34.3507 33.3333 35.2V39.8053L35.396 41.8667ZM22.4773 19.036L17.024 13.5827L14.2507 16.356L19.704 21.8093L22.4773 19.036ZM47.5613 46.3027C47.3743 46.5105 47.1762 46.7081 46.968 46.8947L48.0667 47.9933C48.1055 48.0323 48.1517 48.0632 48.2025 48.0843C48.2533 48.1055 48.3078 48.1164 48.3629 48.1164C48.4179 48.1165 48.4724 48.1057 48.5233 48.0847C48.5741 48.0637 48.6204 48.0329 48.6593 47.994C48.6983 47.9551 48.7292 47.909 48.7503 47.8581C48.7714 47.8073 48.7823 47.7528 48.7824 47.6978C48.7825 47.6428 48.7717 47.5883 48.7507 47.5374C48.7297 47.4865 48.6989 47.4403 48.66 47.4013L47.5613 46.3027ZM44.7147 36.9107L45.3867 37.5827C45.9094 38.1031 46.3112 38.7322 46.5635 39.4253C46.8158 40.1185 46.9125 40.8586 46.8467 41.5933C46.8047 42.0751 46.6938 42.5484 46.5173 42.9987L43.664 45.8507C42.7495 46.2098 41.75 46.2942 40.7882 46.0936C39.8264 45.893 38.944 45.4161 38.2493 44.7213L37.5773 44.0493L44.7147 36.9107ZM22.6667 38.6667C22.6667 38.313 22.5262 37.9739 22.2761 37.7239C22.0261 37.4738 21.687 37.3333 21.3333 37.3333C20.9797 37.3333 20.6406 37.4738 20.3905 37.7239C20.1405 37.9739 20 38.313 20 38.6667V41.3333H17.3333C16.9797 41.3333 16.6406 41.4738 16.3905 41.7239C16.1405 41.9739 16 42.313 16 42.6667C16 43.0203 16.1405 43.3594 16.3905 43.6095C16.6406 43.8595 16.9797 44 17.3333 44H20V46.6667C20 47.0203 20.1405 47.3594 20.3905 47.6095C20.6406 47.8595 20.9797 48 21.3333 48C21.687 48 22.0261 47.8595 22.2761 47.6095C22.5262 47.3594 22.6667 47.0203 22.6667 46.6667V44H25.3333C25.687 44 26.0261 43.8595 26.2761 43.6095C26.5262 43.3594 26.6667 43.0203 26.6667 42.6667C26.6667 42.313 26.5262 41.9739 26.2761 41.7239C26.0261 41.4738 25.687 41.3333 25.3333 41.3333H22.6667V38.6667Z" fill="#5EC0A5"/>
</g>
</svg>
